HIERARCHY
ROOT Hips
{
	OFFSET 0.00000 0.00000 0.00000
	CHANNELS 6 Xposition Yposition Zposition Zrotation Yrotation Xrotation 
	JOINT LHipJoint
	{
		OFFSET 0 0 0
		CHANNELS 3 Zrotation Yrotation Xrotation
		JOINT LeftUpLeg
		{
			OFFSET 1.52977 -1.71332 0.88991
			CHANNELS 3 Zrotation Yrotation Xrotation
			JOINT LeftLeg
			{
				OFFSET 2.23949 -6.15296 0.00000
				CHANNELS 3 Zrotation Yrotation Xrotation
				JOINT LeftFoot
				{
					OFFSET 2.68396 -7.37412 0.00000
					CHANNELS 3 Zrotation Yrotation Xrotation
					JOINT LeftToeBase
					{
						OFFSET 0.20538 -0.56428 2.52710
						CHANNELS 3 Zrotation Yrotation Xrotation
						End Site
						{
							OFFSET 0.00000 -0.00000 1.29919
						}
					}
				}
			}
		}
	}
	JOINT RHipJoint
	{
		OFFSET 0 0 0
		CHANNELS 3 Zrotation Yrotation Xrotation
		JOINT RightUpLeg
		{
			OFFSET -1.45689 -1.71333 0.88991
			CHANNELS 3 Zrotation Yrotation Xrotation
			JOINT RightLeg
			{
				OFFSET -2.36700 -6.50329 0.00000
				CHANNELS 3 Zrotation Yrotation Xrotation
				JOINT RightFoot
				{
					OFFSET -2.69814 -7.41308 0.00000
					CHANNELS 3 Zrotation Yrotation Xrotation
					JOINT RightToeBase
					{
						OFFSET -0.18734 -0.51471 2.37479
						CHANNELS 3 Zrotation Yrotation Xrotation
						End Site
						{
							OFFSET -0.00000 -0.00000 1.22113
						}
					}
				}
			}
		}
	}
	JOINT LowerBack
	{
		OFFSET 0 0 0
		CHANNELS 3 Zrotation Yrotation Xrotation
		JOINT Spine
		{
			OFFSET 0.04294 2.14638 -0.31163
			CHANNELS 3 Zrotation Yrotation Xrotation
			JOINT Spine1
			{
				OFFSET -0.00400 2.17216 0.01486
				CHANNELS 3 Zrotation Yrotation Xrotation
				JOINT Neck
				{
					OFFSET 0 0 0
					CHANNELS 3 Zrotation Yrotation Xrotation
					JOINT Neck1
					{
						OFFSET 0.03869 1.76598 0.14916
						CHANNELS 3 Zrotation Yrotation Xrotation
						JOINT Head
						{
							OFFSET -0.00760 1.75513 -0.18948
							CHANNELS 3 Zrotation Yrotation Xrotation
							End Site
							{
								OFFSET -0.00601 1.82444 -0.08310
							}
						}
					}
				}
				JOINT LeftShoulder
				{
					OFFSET 0 0 0
					CHANNELS 3 Zrotation Yrotation Xrotation
					JOINT LeftArm
					{
						OFFSET 3.73696 0.92058 0.01733
						CHANNELS 3 Zrotation Yrotation Xrotation
						JOINT LeftForeArm
						{
							OFFSET 5.22771 -0.00000 0.00000
							CHANNELS 3 Zrotation Yrotation Xrotation
							JOINT LeftHand
							{
								OFFSET 3.45251 -0.00000 0.00000
								CHANNELS 3 Zrotation Yrotation Xrotation
								JOINT LeftFingerBase
								{
									OFFSET 0 0 0
									CHANNELS 3 Zrotation Yrotation Xrotation
									JOINT LeftHandIndex1
									{
										OFFSET 0.55212 -0.00000 0.00000
										CHANNELS 3 Zrotation Yrotation Xrotation
										End Site
										{
											OFFSET 0.44513 -0.00000 0.00000
										}
									}
								}
								JOINT LThumb
								{
									OFFSET 0 0 0
									CHANNELS 3 Zrotation Yrotation Xrotation
									End Site
									{
										OFFSET 0.45193 -0.00000 0.45193
									}
								}
							}
						}
					}
				}
				JOINT RightShoulder
				{
					OFFSET 0 0 0
					CHANNELS 3 Zrotation Yrotation Xrotation
					JOINT RightArm
					{
						OFFSET -3.63819 0.83094 -0.13694
						CHANNELS 3 Zrotation Yrotation Xrotation
						JOINT RightForeArm
						{
							OFFSET -5.23980 -0.00000 -0.00000
							CHANNELS 3 Zrotation Yrotation Xrotation
							JOINT RightHand
							{
								OFFSET -3.48042 -0.00000 -0.00000
								CHANNELS 3 Zrotation Yrotation Xrotation
								JOINT RightFingerBase
								{
									OFFSET 0 0 0
									CHANNELS 3 Zrotation Yrotation Xrotation
									JOINT RightHandIndex1
									{
										OFFSET -0.61871 -0.00000 0.00000
										CHANNELS 3 Zrotation Yrotation Xrotation
										End Site
										{
											OFFSET -0.49882 -0.00000 0.00000
										}
									}
								}
								JOINT RThumb
								{
									OFFSET 0 0 0
									CHANNELS 3 Zrotation Yrotation Xrotation
									End Site
									{
										OFFSET -0.50644 -0.00000 0.50644
									}
								}
							}
						}
					}
				}
			}
		}
	}
}
MOTION
Frames: 14
Frame Time: 0.142857
0.00 0.00 0.00 0 0 0 0 0 0 -21 0 0 0 0 0 0 0 0 0 0 0 0 0 0 21 0 0 0 0 0 0 0 0 0 0 0 0 0 0 0 0 0 0 0 0 0 0 -16 0 0 21 0 0 11 0 0 0 -8 0 0 0 0 0 0 0 0 0 0 0 0 0 0 0 0 0 0 0 0 8 0 0 0 0 0 0 0 0 0 0 0 0 0 0 0 0 0
0.00 0.00 0.00 -104.8270 86.6789 -93.0812 0.0000 0.0000 0.0000 -17.6101 3.1560 -19.2105 1.4165 7.5270 21.2864 0.1049 -2.9249 -5.8004 0.7432 -5.5070 -15.3605 0.0000 0.0000 0.0000 20.7734 10.9343 -21.1173 -3.1098 -10.8707 31.8451 -0.8273 -2.0846 -18.0566 -0.1701 -2.6570 7.3253 3.1629 -0.9330 6.8138 -0.2467 -0.9686 3.3858 -1.9609 -0.4121 -0.3841 1.9860 -0.5996 -2.2013 2.2335 -0.7217 -3.6860 0.3538 -0.3803 -0.7576 0.0000 0.0000 0.0000 -86.7577 0.3287 27.0048 18.4908 -28.7811 -4.7832 -0.0000 0.0000 -21.9091 20.0532 12.1514 4.3937 -7.1250 0.0000 -0.0000 -6.4942 42.7976 0.3546 0.0000 0.0000 0.0000 89.6326 -1.3517 28.5410 -17.7276 27.8070 -4.4215 0.0000 0.0000 0.1072 -21.0660 -8.8212 3.3805 7.1250 -0.0000 -0.0000 5.0867 -39.3733 0.7074
0.00 0.00 0.00 -106.7610 86.2465 -86.9602 0.0000 0.0000 0.0000 -16.5112 1.4966 -30.6786 1.3758 7.4227 20.9739 0.2496 0.8495 9.1752 1.3951 -7.4725 -21.1228 0.0000 0.0000 0.0000 18.8115 11.2035 -31.3762 -2.6250 -10.0617 29.1766 0.1027 -7.4505 -7.8627 -0.1889 -2.7988 7.7192 3.7776 -0.9798 10.4020 -0.0381 -0.7940 3.7933 -2.0727 -0.3221 -1.9334 2.1757 -0.4907 2.4350 2.3319 0.0020 -13.4226 0.4012 -0.1316 -4.9080 -0.0000 0.0000 0.0000 -86.1623 0.7759 27.1434 20.7905 -31.5830 -5.9398 -0.0000 0.0000 -23.3723 20.2200 12.6578 4.6143 -7.1250 0.0000 -0.0000 -6.4379 43.3470 0.2638 -0.0000 0.0000 0.0000 89.4815 -0.8527 29.4860 -19.1938 29.6588 -5.1264 0.0000 -0.0000 -0.9965 -20.9817 -9.1136 3.4760 7.1250 -0.0000 -0.0000 5.1983 -39.6771 0.6841
0.00 0.00 0.00 -26.5976 82.0276 -4.4696 0.0000 0.0000 0.0000 -22.5603 8.3311 -26.4554 0.8650 5.9306 16.5831 0.3499 -4.0347 13.3967 2.7594 -10.2950 -29.9374 0.0000 0.0000 0.0000 12.0970 21.7293 -50.8261 -2.7824 -10.3341 30.0657 1.1252 -22.3111 5.3229 -0.0031 -0.3598 0.9887 -0.8942 0.3852 21.0523 -2.0274 0.6719 7.4181 -1.8273 0.5317 -3.6883 3.3144 0.6013 4.1698 1.8913 2.1997 -22.4572 -0.1437 0.8723 -7.5777 0.0000 -0.0000 0.0000 -86.0493 2.8369 22.9331 18.4202 -28.6918 -4.7492 -0.0000 0.0000 -23.4380 20.7258 12.6971 4.7542 -7.1250 0.0000 -0.0000 -5.9890 43.4438 0.2309 0.0000 -0.0000 0.0000 90.5826 -0.6700 28.9044 -16.8617 26.6751 -4.0251 0.0000 0.0000 1.5929 -21.2433 -8.5673 3.3144 7.1250 -0.0000 -0.0000 4.9013 -39.1170 0.7125
0.00 0.00 0.00 138.4890 85.3653 159.9390 0.0000 0.0000 0.0000 -22.4589 7.3874 -4.0257 0.3943 4.0318 11.1661 1.9255 8.4966 24.8904 3.0706 -10.8085 -31.6366 0.0000 0.0000 0.0000 9.2470 17.6828 -48.1489 -3.1416 -10.9208 32.0134 0.2239 -13.6360 6.5273 -0.0628 1.6167 -4.4474 0.3526 -1.8697 20.5131 -1.4804 -1.8933 7.4985 -1.3571 -0.6854 -3.4058 2.8879 -0.9228 4.3892 1.5287 -0.0054 -23.2693 -0.0215 -0.1196 -7.8978 -0.0000 -0.0000 0.0000 -87.7086 5.0713 22.6973 17.1337 -27.0337 -4.1479 -0.0000 0.0000 -23.0046 20.8768 11.9907 4.5305 -7.1250 0.0000 -0.0000 -5.7282 42.7146 0.3242 -0.0000 -0.0000 0.0000 89.4351 -1.0472 27.1454 -16.2882 25.9099 -3.7710 0.0000 0.0000 3.2432 -21.6946 -8.7945 3.4808 7.1250 -0.0000 -0.0000 4.5394 -39.3945 0.6286
0.00 0.00 0.00 152.9810 86.0591 177.6590 0.0000 0.0000 0.0000 -18.5554 -1.2218 -16.9942 3.2177 11.0394 32.4127 1.7640 4.6205 24.0606 2.4536 -9.7530 -28.1806 0.0000 0.0000 0.0000 13.6946 15.4989 -42.6048 -2.4630 -9.7703 28.2362 -0.0162 -11.4637 8.2746 -0.1550 2.5365 -6.9908 2.6214 -2.1073 20.2981 -1.2902 -1.8184 7.0358 -2.4602 -0.6610 -3.8533 2.5790 -0.9144 4.1659 1.7061 0.0522 -23.9237 0.0829 -0.0687 -8.0759 -0.0000 -0.0000 0.0000 -87.4843 4.5398 24.1784 17.5673 -27.5995 -4.3469 -0.0000 0.0000 -22.7823 20.0813 12.1483 4.3993 -7.1250 0.0000 -0.0000 -6.4686 42.7973 0.3532 -0.0000 -0.0000 0.0000 89.0012 -0.4254 30.0055 -17.3842 27.3615 -4.2624 0.0000 0.0000 1.2650 -21.3343 -9.2963 3.6102 7.1250 -0.0000 -0.0000 4.9163 -39.9002 0.6197
0.00 0.00 0.00 267.9590 87.3686 287.4120 0.0000 0.0000 0.0000 -21.7884 -3.2690 -46.1896 3.1413 10.9204 32.0120 0.1798 -4.0254 10.5221 2.4082 -9.6691 -27.9117 0.0000 0.0000 0.0000 22.2881 7.0598 -17.1650 -5.9873 -14.4160 44.9308 -0.8504 -16.6952 18.8896 -0.0323 -1.1605 3.1907 2.4136 -0.4879 20.5788 -1.7296 0.2742 7.8812 -3.2923 0.4139 -2.9460 2.8332 -1.1405 4.0967 2.7697 -0.1526 -21.9584 0.4060 -0.2985 -7.4120 -0.0000 -0.0000 0.0000 -86.8099 5.9381 22.3696 16.3935 -26.0513 -3.8172 -0.0000 0.0000 -22.3752 21.1064 11.5788 4.4302 -7.1250 0.0000 -0.0000 -5.4541 42.3026 0.3642 -0.0000 -0.0000 0.0000 89.9927 -0.6672 30.2097 -15.8147 25.2688 -3.5665 0.0000 0.0000 3.5632 -21.9314 -8.9366 3.5789 7.1250 -0.0000 -0.0000 4.3517 -39.5652 0.5842
0.00 0.00 0.00 247.1810 89.0982 267.0440 0.0000 0.0000 0.0000 -24.1537 -2.3824 -43.3833 3.4521 11.3932 33.6176 0.1206 -3.6867 8.9680 2.4752 -9.7928 -28.3082 0.0000 0.0000 0.0000 17.5866 9.8505 -29.0236 -10.8909 -17.8813 62.4267 -0.9336 -9.9253 17.5674 -0.0000 0.0448 -0.1232 1.1859 -0.9265 21.0710 -2.0208 -0.5031 8.0261 -2.7296 0.0315 -3.0905 2.8479 -1.1239 4.1855 2.7757 -0.1250 -22.0573 0.4045 -0.2912 -7.4607 -0.0000 -0.0000 0.0000 -86.6666 5.1072 23.6574 17.4196 -27.4076 -4.2787 -0.0000 0.0000 -22.9545 21.0627 12.4223 4.7359 -7.1250 0.0000 -0.0000 -5.6360 43.1906 0.2525 -0.0000 -0.0000 0.0000 90.0399 -0.2269 30.6472 -16.6672 26.4170 -3.9381 0.0000 0.0000 2.0437 -22.5482 -8.8101 3.6387 7.1250 -0.0000 -0.0000 3.8015 -39.4791 0.5181
0.00 0.00 0.00 358.4110 89.6114 377.5890 0.0000 0.0000 0.0000 -25.2419 -0.2419 -38.5464 3.5051 11.4709 33.8852 0.0906 -3.2587 7.8335 2.7810 -10.3318 -30.0581 0.0000 0.0000 0.0000 13.5875 14.1856 -41.9119 -13.4023 -18.9226 70.3703 0.0844 -6.6460 2.0574 -0.3265 3.6725 -10.1572 0.5750 -0.9354 21.2866 -2.1769 -0.6062 8.3054 -2.5243 -0.0093 -2.8987 2.8840 -0.8877 4.1815 2.4629 0.1076 -21.6111 0.2781 -0.1582 -7.3122 0.0000 0.0000 0.0000 -86.7080 4.4294 23.7497 17.3741 -27.3483 -4.2578 -0.0000 0.0000 -22.9893 20.9447 12.6183 4.7797 -7.1250 0.0000 -0.0000 -5.7772 43.3848 0.2311 0.0000 0.0000 0.0000 90.3093 -0.3968 30.6083 -16.1252 25.6901 -3.7001 0.0000 0.0000 2.0536 -21.4683 -9.1061 3.5615 7.1250 -0.0000 -0.0000 4.7750 -39.7086 0.6244
0.00 0.00 0.00 444.1150 88.7014 462.0320 0.0000 0.0000 0.0000 -27.2524 4.2633 -30.2910 2.8489 10.4463 30.4344 0.0949 -2.8511 7.5902 2.9361 -10.5909 -30.9121 0.0000 0.0000 0.0000 9.3125 17.8542 -49.9378 -8.4565 -16.4450 54.1909 0.2776 -9.5991 -6.0971 -0.2280 3.0732 -8.4825 0.0084 -1.3420 20.9108 -2.2048 -1.1974 8.6720 -2.0964 -0.2903 -2.3299 2.9218 -0.7160 4.2136 2.0156 0.2754 -21.8392 0.1133 -0.0428 -7.3911 0.0000 -0.0000 0.0000 -86.9861 4.6428 23.6835 17.2814 -27.2273 -4.2153 -0.0000 0.0000 -22.6159 20.8250 12.5917 4.7401 -7.1250 0.0000 -0.0000 -5.8804 43.3435 0.2413 0.0000 -0.0000 0.0000 90.3165 -1.1619 29.3436 -14.9262 24.0432 -3.1958 0.0000 0.0000 3.4730 -20.8776 -9.0000 3.4146 7.1250 -0.0000 -0.0000 5.2734 -39.5481 0.7108
0.00 0.00 0.00 534.1090 84.8127 551.7830 0.0000 0.0000 0.0000 -17.5076 -2.6847 -19.9656 7.2621 15.5487 49.8588 1.7091 7.0136 23.4478 1.8197 -8.4800 -24.1818 0.0000 0.0000 0.0000 18.0116 13.6627 -37.2384 -3.5199 -11.4926 33.9597 0.2961 -9.8728 -1.1399 -0.0289 1.0983 -3.0192 2.7156 -2.6176 20.2719 -1.0994 -2.3166 8.4793 -2.2151 -0.8122 -2.3148 2.3814 -0.9008 4.1148 2.6992 0.1241 -22.0465 0.4384 -0.1232 -7.4409 -0.0000 0.0000 0.0000 -87.2705 5.1423 24.5560 19.4036 -29.9171 -5.2306 -0.0000 0.0000 -24.1417 19.9605 12.6745 4.5562 -7.1250 0.0000 -0.0000 -6.6748 43.3362 0.2754 -0.0000 0.0000 0.0000 90.2449 -1.6041 30.6737 -16.6486 26.3922 -3.9298 0.0000 0.0000 2.6175 -22.2246 -9.3005 3.7780 7.1250 -0.0000 -0.0000 4.1415 -39.9789 0.5136
0.00 0.00 0.00 852.2070 85.1016 866.1010 0.0000 0.0000 0.0000 -20.9666 12.5730 4.7249 1.3082 7.2452 20.4439 1.1895 9.3004 19.6022 3.0009 -10.6965 -31.2630 0.0000 0.0000 0.0000 11.6821 13.8095 -51.8186 -7.2571 -15.5446 49.8401 0.2239 -9.0840 0.4754 -0.0016 0.2553 -0.7015 -0.3419 -2.3878 19.1123 -1.7566 -2.6226 8.4296 -1.1448 -1.0238 -1.6909 2.2232 -0.5761 3.8374 1.5000 0.1406 -19.7598 0.0759 -0.0222 -6.6422 -0.0000 -0.0000 0.0000 -87.2498 3.8043 21.0764 14.8812 -23.9804 -3.1775 -0.0000 0.0000 -20.3576 21.1341 12.4356 4.7584 -7.1250 0.0000 -0.0000 -5.5740 43.2124 0.2467 -0.0000 -0.0000 0.0000 89.8487 -4.2234 25.3813 -13.6513 22.2340 -2.6947 0.0000 0.0000 2.8454 -22.1138 -10.0385 4.0514 7.1250 -0.0000 -0.0000 4.3334 -40.7596 0.4541
0.00 0.00 0.00 992.9670 83.6055 1009.6600 0.0000 0.0000 0.0000 -15.0982 -3.9613 -49.0105 1.4209 7.5383 21.3203 1.9373 10.4550 25.0165 2.6273 -10.0657 -29.1898 0.0000 0.0000 0.0000 29.4672 -0.4166 -4.6080 -1.3120 -7.2553 20.4739 0.3589 -12.1071 1.9076 -0.0527 1.4821 -4.0764 6.4395 -0.7761 18.7925 -0.5033 0.6010 8.6844 -4.3051 0.7123 -1.0886 2.2613 -0.7633 3.7285 2.1853 -0.0267 -19.2040 0.2997 -0.1593 -6.4469 0.0000 0.0000 0.0000 -86.0833 5.5622 22.0827 14.2164 -23.0432 -2.9123 -0.0000 0.0000 -19.0260 19.1561 13.1926 4.5330 -7.1250 0.0000 -0.0000 -7.5029 43.7885 0.2257 0.0000 0.0000 0.0000 90.6938 -0.2125 26.4136 -12.6798 20.8162 -2.3383 0.0000 0.0000 7.2886 -22.0291 -8.9675 3.6088 7.1250 -0.0000 -0.0000 4.2707 -39.6061 0.5689
0.00 0.00 0.00 1008.2900 83.7058 1022.9600 0.0000 0.0000 0.0000 -15.7674 -4.8246 -47.9378 4.1869 12.4050 37.1803 0.2155 0.9350 8.4880 3.2401 -11.0740 -32.5299 0.0000 0.0000 0.0000 26.3987 -0.2734 2.4350 -2.0597 -8.9894 25.7621 0.4442 -15.4633 5.1274 -0.0699 -1.7051 4.6914 4.7781 -0.5521 20.9321 -0.8636 0.7447 8.7187 -3.8148 0.7321 -2.1569 2.6882 -0.4756 3.1939 2.4281 0.4136 -18.5506 0.2756 0.0177 -6.1486 0.0000 0.0000 0.0000 -86.0837 5.0305 21.8319 14.3063 -23.1709 -2.9476 -0.0000 0.0000 -19.8199 20.3528 13.0824 4.7997 -7.1250 0.0000 -0.0000 -6.3985 43.8076 0.1891 0.0000 0.0000 0.0000 90.9971 -0.9976 24.8525 -12.6364 20.7521 -2.3229 0.0000 0.0000 7.2351 -23.6597 -8.4956 3.7034 7.1250 -0.0000 -0.0000 2.8037 -39.2275 0.3992
